<?xml version="1.0" encoding="UTF-8" standalone="no"?>
<!-- Created with Inkscape (http://www.inkscape.org/) -->

<svg
   xmlns:dc="http://purl.org/dc/elements/1.1/"
   xmlns:cc="http://creativecommons.org/ns#"
   xmlns:rdf="http://www.w3.org/1999/02/22-rdf-syntax-ns#"
   xmlns:svg="http://www.w3.org/2000/svg"
   xmlns="http://www.w3.org/2000/svg"
   xmlns:sodipodi="http://sodipodi.sourceforge.net/DTD/sodipodi-0.dtd"
   xmlns:inkscape="http://www.inkscape.org/namespaces/inkscape"
   width="210mm"
   height="297mm"
   viewBox="0 0 210 297"
   version="1.1"
   id="svg8"
   sodipodi:docname="mumps-debug-icon.svg"
   inkscape:export-filename="D:\Documents\VSCode\mumps-debug\images\mumps-debug-icon.png"
   inkscape:export-xdpi="130.46425"
   inkscape:export-ydpi="130.46425"
   inkscape:version="0.92.2 (5c3e80d, 2017-08-06)">
  <defs
     id="defs2" />
  <sodipodi:namedview
     id="base"
     pagecolor="#ffffff"
     bordercolor="#666666"
     borderopacity="1.0"
     inkscape:pageopacity="0"
     inkscape:pageshadow="2"
     inkscape:zoom="22.627417"
     inkscape:cx="50.33128"
     inkscape:cy="1080.5486"
     inkscape:document-units="mm"
     inkscape:current-layer="layer1"
     showgrid="false"
     inkscape:window-width="1920"
     inkscape:window-height="1017"
     inkscape:window-x="1912"
     inkscape:window-y="-8"
     inkscape:window-maximized="1"
     inkscape:pagecheckerboard="false" />
  <metadata
     id="metadata5">
    <rdf:RDF>
      <cc:Work
         rdf:about="">
        <dc:format>image/svg+xml</dc:format>
        <dc:type
           rdf:resource="http://purl.org/dc/dcmitype/StillImage" />
        <dc:title></dc:title>
      </cc:Work>
    </rdf:RDF>
  </metadata>
  <g
     inkscape:groupmode="layer"
     id="layer2"
     inkscape:label="Ebene 2">
    <rect
       style="fill:#ffffe0;fill-opacity:1;stroke:#ed0000;stroke-width:0;stroke-linecap:round;stroke-linejoin:round;stroke-miterlimit:4;stroke-dasharray:none;stroke-opacity:1"
       id="rect4614"
       width="7.8099136"
       height="7.7875657"
       x="10.875566"
       y="6.2057424"
       inkscape:export-xdpi="140"
       inkscape:export-ydpi="140" />
  </g>
  <g
     inkscape:label="Ebene 1"
     inkscape:groupmode="layer"
     id="layer1">
    <path
       style="fill:#000000;stroke-width:0.14460601"
       d="m 12.232065,12.14358 c -0.0033,-0.197218 0.180678,-0.510884 0.441307,-0.752332 0.254182,-0.235472 0.42572,-0.524393 0.397676,-0.6698 l -0.04932,-0.255707 -0.506582,-0.08905 -0.506583,-0.08905 0.471929,-0.01895 0.471928,-0.01896 V 9.9464958 c 0,-0.1667734 -0.163359,-0.4957581 -0.363021,-0.7310769 l -0.363023,-0.4278403 0.01555,-0.5289723 0.01555,-0.5289726 0.135674,0.5993438 c 0.07462,0.3296387 0.229162,0.6762869 0.343424,0.7703297 l 0.207748,0.1709872 0.221862,-0.2200223 c 0.122024,-0.1210134 0.221861,-0.3171535 0.221861,-0.435866 0,-0.1187134 0.172941,-0.3507505 0.384312,-0.5156378 L 14.156676,7.7989725 13.917573,7.536956 c -0.33026,-0.36191 -0.301441,-0.5559324 0.0374,-0.2518227 L 14.231481,7.5332959 14.535809,7.344815 14.840136,7.1563339 15.144465,7.344815 15.448792,7.5332959 15.7253,7.2851333 c 0.338846,-0.3041097 0.367665,-0.1100877 0.0374,0.2518227 l -0.239104,0.2620165 0.384313,0.2997958 c 0.211371,0.1648873 0.384312,0.3969244 0.384312,0.5156378 0,0.1187125 0.09984,0.3148526 0.221862,0.435866 l 0.221863,0.2200223 0.207748,-0.1709872 c 0.114262,-0.094042 0.268802,-0.440691 0.343424,-0.7703297 l 0.135675,-0.5993438 0.01555,0.5289726 0.01555,0.5289723 -0.363022,0.4278514 c -0.199662,0.2353187 -0.363022,0.5643036 -0.363022,0.731077 v 0.303225 l 0.471928,0.01895 0.47193,0.01895 -0.492257,0.08904 -0.492257,0.08905 -0.120201,0.324013 c -0.07466,0.201257 -0.06445,0.324011 0.02692,0.324011 0.277768,0 0.859973,0.707059 0.85429,1.037496 l -0.0056,0.330558 -0.200314,-0.456679 c -0.11017,-0.251165 -0.339479,-0.530535 -0.509575,-0.620812 l -0.309265,-0.164141 -0.506254,0.440813 -0.506254,0.440814 h -0.57078 -0.570729 l -0.506255,-0.440814 -0.506255,-0.440813 -0.309264,0.164141 c -0.170095,0.09027 -0.399404,0.369647 -0.509576,0.620821 l -0.200312,0.456679 z"
       id="path4539"
       inkscape:connector-curvature="0"
       inkscape:export-xdpi="140.25084"
       inkscape:export-ydpi="140.25084" />
    <ellipse
       style="fill:none;fill-opacity:1;stroke:#ff0000;stroke-width:0.555;stroke-linecap:round;stroke-linejoin:round;stroke-miterlimit:4;stroke-dasharray:none;stroke-opacity:1"
       id="path4527"
       cx="14.808955"
       cy="10.076397"
       rx="3.5374322"
       ry="3.4444044"
       inkscape:export-xdpi="140.25084"
       inkscape:export-ydpi="140.25084" />
    <path
       style="fill:none;stroke:#fe0000;stroke-width:0.64037079;stroke-linecap:butt;stroke-linejoin:miter;stroke-miterlimit:4;stroke-dasharray:none;stroke-opacity:1"
       d="M 12.514406,12.437605 17.012397,7.5762932"
       id="path4531"
       inkscape:connector-curvature="0"
       inkscape:export-xdpi="140.25084"
       inkscape:export-ydpi="140.25084" />
    <path
       style="fill:none;stroke:#ed0000;stroke-width:0.62207168;stroke-linecap:butt;stroke-linejoin:miter;stroke-miterlimit:4;stroke-dasharray:none;stroke-opacity:1"
       d="m 12.437339,7.5621336 2.376017,2.4596264 2.336674,2.418897 v 0"
       id="path4533"
       inkscape:connector-curvature="0"
       sodipodi:nodetypes="cccc"
       inkscape:export-xdpi="140.25084"
       inkscape:export-ydpi="140.25084" />
    <flowRoot
       xml:space="preserve"
       id="flowRoot4504"
       style="font-style:normal;font-variant:normal;font-weight:normal;font-stretch:normal;font-size:13.33333302px;line-height:1.25;font-family:sans-serif;-inkscape-font-specification:'sans-serif, Normal';font-variant-ligatures:normal;font-variant-caps:normal;font-variant-numeric:normal;font-feature-settings:normal;text-align:start;letter-spacing:0px;word-spacing:0px;writing-mode:lr-tb;text-anchor:start;fill:#000000;fill-opacity:1;stroke:#00ff04;stroke-width:1.37952757;stroke-linejoin:round;stroke-miterlimit:4;stroke-dasharray:none;stroke-opacity:1"
       transform="matrix(0.26458333,0,0,0.26458333,5.2501758,1.4733232)"
       inkscape:export-xdpi="140.25084"
       inkscape:export-ydpi="140.25084"><flowRegion
         id="flowRegion4506"
         style="stroke:#00ff04;stroke-width:1.37952757;stroke-linejoin:round;stroke-miterlimit:4;stroke-dasharray:none;stroke-opacity:1"><rect
           id="rect4508"
           width="82.5"
           height="65.5"
           x="30.5"
           y="25.519686"
           style="stroke:#00ff04;stroke-width:1.37952757;stroke-linejoin:round;stroke-miterlimit:4;stroke-dasharray:none;stroke-opacity:1" /></flowRegion><flowPara
         id="flowPara4510">M</flowPara></flowRoot>  </g>
</svg>
